name C:\Users\u0101727\Documents\MyRepositories\upper-imu-dc\Results\main_tracking\Case_48\ABD01_orientations_groundFrame.mot
datacolumns 13
datarows 36
range 4.56000000 4.91000000
endheader 
time	radius_imu_[0][0]	radius_imu_[0][1]	radius_imu_[0][2]	radius_imu_[1][0]	radius_imu_[1][1]	radius_imu_[1][2]	radius_imu_[2][0]	radius_imu_[2][1]	radius_imu_[2][2]	radius_imu_x	radius_imu_y	radius_imu_z	
          4.56000000	          0.96011001	          0.17484910	          0.21821220	         -0.23292800	          0.06835183	          0.97008895	          0.15470397	         -0.98221984	          0.10635252	         -1.46160069	          0.21998215	         -0.18013946	
          4.57000000	          0.95998155	          0.17592898	          0.21790919	         -0.23138770	          0.05987852	          0.97101714	          0.15778197	         -0.98258005	          0.09819008	         -1.47001804	          0.21967166	         -0.18125161	
          4.58000000	          0.95987612	          0.17698428	          0.21751874	         -0.22972571	          0.05143256	          0.97189546	          0.16082267	         -0.98286889	          0.09002673	         -1.47842985	          0.21927161	         -0.18233456	
          4.59000000	          0.95978748	          0.17801350	          0.21706955	         -0.22797184	          0.04301499	          0.97271710	          0.16381953	         -0.98308743	          0.08186732	         -1.48683067	          0.21881144	         -0.18338791	
          4.60000000	          0.95970955	          0.17901512	          0.21658986	         -0.22615548	          0.03462630	          0.97347559	          0.16676714	         -0.98323680	          0.07371644	         -1.49521557	          0.21832005	         -0.18441123	
          4.61000000	          0.95963669	          0.17998777	          0.21610606	         -0.22430431	          0.02626659	          0.97416510	          0.16966144	         -0.98331809	          0.06557842	         -1.50358018	          0.21782451	         -0.18540422	
          4.62000000	          0.95956393	          0.18093045	          0.21564145	         -0.22244299	          0.01793589	          0.97478070	          0.17249979	         -0.98333233	          0.05745734	         -1.51192059	          0.21734868	         -0.18636679	
          4.63000000	          0.95948724	          0.18184260	          0.21521501	         -0.22059194	          0.00963440	          0.97531860	          0.17528100	         -0.98328045	          0.04935710	         -1.52023333	          0.21691200	         -0.18729921	
          4.64000000	          0.95940370	          0.18272425	          0.21484037	         -0.21876627	          0.00136286	          0.97577634	          0.17800520	         -0.98316326	          0.04128143	         -1.52851529	          0.21652838	         -0.18820208	
          4.65000000	          0.95931168	          0.18357596	          0.21452496	         -0.21697500	         -0.00687735	          0.97615293	          0.18067358	         -0.98298147	          0.03323387	         -1.53676371	          0.21620544	         -0.18907632	
          4.66000000	          0.95921092	          0.18439877	          0.21426972	         -0.21522062	         -0.01508404	          0.97644895	          0.18328804	         -0.98273576	          0.02521764	         -1.54497620	          0.21594413	         -0.18992307	
          4.67000000	          0.95910248	          0.18519401	          0.21406918	         -0.21349923	         -0.02325425	          0.97666643	          0.18585079	         -0.98242680	          0.01723557	         -1.55315081	          0.21573882	         -0.19074351	
          4.68000000	          0.95898865	          0.18596319	          0.21391227	         -0.21180128	         -0.03138439	          0.97680870	          0.18836397	         -0.98205535	          0.00928997	         -1.56128609	          0.21557819	         -0.19153873	
          4.69000000	          0.95887263	          0.18670779	          0.21378370	         -0.21011298	         -0.03947050	          0.97688004	          0.19082926	         -0.98162227	          0.00138254	         -1.56938106	          0.21544658	         -0.19230961	
          4.70000000	          0.95875818	          0.18742908	          0.21366582	         -0.20841806	         -0.04750850	          0.97688528	          0.19324766	         -0.98112857	         -0.00648556	         -1.57743525	          0.21532590	         -0.19305674	
          4.71000000	          0.95864920	          0.18812801	          0.21354054	         -0.20669979	         -0.05549454	          0.97682934	          0.19561929	         -0.98057545	         -0.01431378	         -1.58544858	          0.21519766	         -0.19378028	
          4.72000000	          0.95854937	          0.18880500	          0.21339115	         -0.20494272	         -0.06342525	          0.97671681	          0.19794340	         -0.97996424	         -0.02210203	         -1.59342136	          0.21504475	         -0.19447994	
          4.73000000	          0.95846189	          0.18945984	          0.21320359	         -0.20313402	         -0.07129801	          0.97655167	          0.20021831	         -0.97929646	         -0.02985069	         -1.60135426	          0.21485278	         -0.19515485	
          4.74000000	          0.95838933	          0.19009155	          0.21296736	         -0.20126433	         -0.07911107	          0.97633709	          0.20244150	         -0.97857378	         -0.03756056	         -1.60924825	          0.21461099	         -0.19580352	
          4.75000000	          0.95833350	          0.19069832	          0.21267595	         -0.19932830	         -0.08686364	          0.97607527	          0.20460972	         -0.97779797	         -0.04523276	         -1.61710467	          0.21431274	         -0.19642375	
          4.76000000	          0.95829542	          0.19127747	          0.21232716	         -0.19732486	         -0.09455594	          0.97576743	          0.20671912	         -0.97697088	         -0.05286873	         -1.62492509	          0.21395581	         -0.19701262	
          4.77000000	          0.95827530	          0.19182553	          0.21192316	         -0.19525732	         -0.10218915	          0.97541374	          0.20876550	         -0.97609443	         -0.06047000	         -1.63271129	          0.21354239	         -0.19756660	
          4.78000000	          0.95827255	          0.19233834	          0.21147031	         -0.19313329	         -0.10976520	          0.97501340	          0.21074454	         -0.97517053	         -0.06803805	         -1.64046504	          0.21307905	         -0.19808162	
          4.79000000	          0.95828583	          0.19281125	          0.21097888	         -0.19096432	         -0.11728663	          0.97456476	          0.21265205	         -0.97420104	         -0.07557405	         -1.64818791	          0.21257628	         -0.19855329	
          4.80000000	          0.95831317	          0.19323937	          0.21046237	         -0.18876532	         -0.12475630	          0.97406546	          0.21448430	         -0.97318776	         -0.08307872	         -1.65588110	          0.21204790	         -0.19897710	
          4.81000000	          0.95835209	          0.19361783	          0.20993670	         -0.18655374	         -0.13217720	          0.97351265	          0.21623825	         -0.97213236	         -0.09055216	         -1.66354536	          0.21151021	         -0.19934868	
          4.82000000	          0.95839975	          0.19394208	          0.20941920	         -0.18434851	         -0.13955227	          0.97290328	          0.21791181	         -0.97103637	         -0.09799393	         -1.67118097	          0.21098095	         -0.19966406	
          4.83000000	          0.95845317	          0.19420814	          0.20892754	         -0.18216892	         -0.14688433	          0.97223427	          0.21950399	         -0.96990113	         -0.10540306	         -1.67878779	          0.21047817	         -0.19991989	
          4.84000000	          0.95850941	          0.19441283	          0.20847868	         -0.18003354	         -0.15417596	          0.97150280	          0.22101501	         -0.96872774	         -0.11277828	         -1.68636546	          0.21001921	         -0.20011359	
          4.85000000	          0.95856568	          0.19455388	          0.20808800	         -0.17795922	         -0.16142963	          0.97070644	          0.22244628	         -0.96751706	         -0.12011824	         -1.69391359	          0.20961976	         -0.20024349	
          4.86000000	          0.95861951	          0.19463004	          0.20776859	         -0.17596038	         -0.16864770	          0.96984323	          0.22380032	         -0.96626968	         -0.12742180	         -1.70143201	          0.20929321	         -0.20030884	
          4.87000000	          0.95866879	          0.19464098	          0.20753084	         -0.17404847	         -0.17583264	          0.96891177	          0.22508063	         -0.96498589	         -0.13468830	         -1.70892104	          0.20905016	         -0.20030977	
          4.88000000	          0.95871184	          0.19458729	          0.20738226	         -0.17223175	         -0.18298715	          0.96791112	          0.22629149	         -0.96366565	         -0.14191783	         -1.71638176	          0.20889828	         -0.20024724	
          4.89000000	          0.95874740	          0.19447038	          0.20732749	         -0.17051526	         -0.19011435	          0.96684077	          0.22743782	         -0.96230858	         -0.14911147	         -1.72381618	          0.20884230	         -0.20012288	
          4.90000000	          0.95877466	          0.19429231	          0.20736840	         -0.16890086	         -0.19721789	          0.96570058	          0.22852495	         -0.96091394	         -0.15627137	         -1.73122738	          0.20888411	         -0.19993895	
          4.91000000	          0.95879318	          0.19405575	          0.20750424	         -0.16738744	         -0.20430188	          0.96449064	          0.22955846	         -0.95948065	         -0.16340075	         -1.73861944	          0.20902297	         -0.19969818	
